<?xml version="1.0" standalone="no"?>
<!DOCTYPE svg PUBLIC "-//W3C//DTD SVG 20010904//EN"
 "http://www.w3.org/TR/2001/REC-SVG-20010904/DTD/svg10.dtd">
<svg version="1.0" xmlns="http://www.w3.org/2000/svg"
 width="1080.000000pt" height="1080.000000pt" viewBox="0 0 1080.000000 1080.000000"
 preserveAspectRatio="xMidYMid meet">

<g transform="translate(0.000000,1080.000000) scale(0.100000,-0.100000)"
fill="#000000" stroke="none">
<path d="M4060 10398 c-321 -26 -672 -142 -924 -305 -322 -208 -680 -624 -881
-1023 -87 -174 -183 -427 -229 -607 -22 -83 -1179 -5528 -1205 -5668 -35 -187
-44 -322 -38 -539 7 -206 12 -242 66 -454 39 -151 69 -232 125 -338 137 -258
372 -460 643 -552 165 -57 528 -101 708 -87 222 17 391 45 556 93 l66 20 47
-100 c129 -266 332 -442 626 -542 137 -46 314 -76 469 -79 l124 -2 118 570
c65 314 118 578 119 587 0 11 -11 19 -32 23 -128 25 -244 91 -337 191 -36 39
-73 84 -82 100 -17 29 -16 29 63 154 130 206 295 536 360 720 11 30 33 105 49
165 43 160 1204 5628 1226 5770 22 151 26 605 5 700 -29 130 -85 343 -107 400
-80 213 -236 423 -410 553 -264 197 -674 288 -1125 250z m6 -1339 c117 -21
187 -85 225 -208 34 -110 43 -209 30 -331 -15 -140 -1188 -5664 -1231 -5792
-50 -151 -140 -323 -210 -400 -142 -156 -391 -212 -540 -120 -115 71 -184 273
-161 473 10 87 1183 5623 1227 5789 54 206 132 349 251 460 120 112 259 156
409 129z"/>
<path d="M6551 7983 c-993 -4685 -1491 -7035 -1491 -7044 0 -5 385 -9 904 -9
852 0 912 1 1057 20 688 92 1234 383 1638 874 402 490 674 1134 825 1958 41
222 58 421 59 678 1 330 -36 577 -123 820 -60 168 -110 261 -211 385 -66 81
-103 117 -176 169 -29 21 -53 41 -53 44 1 4 38 35 84 69 46 35 148 119 227
187 479 412 758 868 899 1471 203 865 210 1415 24 1840 -220 503 -692 766
-1514 846 -68 6 -433 13 -885 16 l-770 5 -494 -2329z m1820 947 c191 -20 283
-61 387 -174 63 -70 133 -208 162 -321 51 -197 8 -639 -95 -980 -165 -545
-413 -848 -790 -964 -138 -43 -435 -70 -435 -39 0 6 97 464 215 1017 119 553
236 1103 261 1221 25 118 48 223 50 233 6 21 83 23 245 7z m-710 -3764 c109
-20 182 -58 259 -135 117 -117 189 -297 210 -525 18 -185 -10 -422 -95 -808
-97 -441 -218 -749 -382 -979 -160 -223 -319 -336 -561 -401 -100 -26 -372
-39 -372 -17 0 8 45 226 100 484 56 259 191 895 301 1415 110 520 202 953 205
963 5 15 20 17 132 17 70 -1 161 -7 203 -14z"/>
</g>
</svg>
