<?xml version="1.0" standalone="no"?>
<!DOCTYPE svg PUBLIC "-//W3C//DTD SVG 20010904//EN"
 "http://www.w3.org/TR/2001/REC-SVG-20010904/DTD/svg10.dtd">
<svg version="1.0" xmlns="http://www.w3.org/2000/svg"
 width="1200.000000pt" height="1200.000000pt" viewBox="0 0 1200.000000 1200.000000"
 preserveAspectRatio="xMidYMid meet">

<g transform="translate(0.000000,1200.000000) scale(0.100000,-0.100000)"
fill="#000000" stroke="none">
<path d="M5928 9893 c-37 -33 -1307 -1208 -3515 -3251 -352 -327 -646 -605
-652 -619 -8 -18 -8 -30 1 -47 7 -12 542 -513 1189 -1112 l1176 -1089 -909 -3
-908 -2 0 -705 0 -705 1670 0 1670 0 101 -93 c216 -197 220 -200 249 -200 30
0 32 2 238 190 l111 103 1456 0 1455 0 0 705 0 705 -691 2 -692 3 1182 1093
c784 726 1183 1102 1187 1118 5 18 1 33 -12 50 -11 13 -246 234 -524 491 -278
257 -1207 1118 -2065 1913 -858 795 -1573 1455 -1589 1468 -42 33 -79 28 -128
-15z m2108 -2002 c1116 -1034 2030 -1884 2031 -1888 2 -5 -537 -510 -1197
-1122 l-1201 -1112 -66 3 -65 3 244 225 c1818 1683 2139 1983 2136 2001 -3 17
-3872 3610 -3910 3630 -14 8 -169 -132 -850 -763 -458 -425 -1338 -1241 -1956
-1812 -634 -588 -1122 -1046 -1122 -1056 0 -10 518 -496 1192 -1121 l1193
-1104 -67 -3 -67 -3 -1201 1112 c-660 612 -1200 1115 -1200 1119 0 4 228 218
508 477 279 258 1193 1105 2031 1881 838 777 1527 1412 1531 1412 4 0 920
-846 2036 -1879z m-117 -112 c1052 -974 1910 -1776 1908 -1782 -2 -7 -541
-510 -1198 -1119 l-1194 -1107 -1435 0 -1435 0 -1197 1110 c-659 611 -1198
1114 -1198 1119 0 5 791 741 1757 1637 967 895 1827 1692 1912 1771 84 78 157
142 161 142 4 0 868 -797 1919 -1771z m-4904 -4415 c21 -8 45 -56 45 -89 0
-41 -80 -407 -96 -440 -13 -26 -13 -31 1 -41 8 -6 13 -18 11 -25 -2 -8 -7 -26
-10 -41 -6 -25 -8 -26 -39 -17 -17 5 -37 16 -44 25 -7 10 -20 14 -33 11 -32
-8 -89 12 -102 36 -18 35 -12 100 32 301 41 192 54 224 107 266 26 20 92 27
128 14z m475 -8 c0 -8 -23 -121 -50 -252 -28 -131 -49 -243 -46 -251 8 -21 36
-15 45 10 5 12 30 121 55 242 26 121 50 230 53 243 4 19 12 22 49 22 31 0 44
-4 44 -14 0 -32 -103 -494 -116 -522 -32 -68 -101 -102 -169 -83 -73 20 -74
62 -5 379 27 129 50 236 50 237 0 2 20 3 45 3 32 0 45 -4 45 -14z m658 -9 c36
-39 35 -71 -8 -277 -46 -217 -69 -275 -118 -304 -70 -40 -156 -15 -168 48 -8
44 68 412 98 474 26 55 69 82 129 82 35 0 51 -5 67 -23z m595 16 c2 -5 0 -27
-5 -50 -9 -42 -10 -43 -52 -43 l-43 0 -47 -227 c-26 -126 -51 -241 -55 -258
-7 -27 -11 -30 -54 -33 -26 -2 -47 -1 -47 2 0 8 100 480 106 499 5 14 -1 17
-40 17 l-44 0 9 38 c6 20 12 43 14 50 3 9 38 12 129 12 69 0 127 -3 129 -7z
m500 0 c2 -5 0 -27 -5 -50 l-9 -43 -58 0 -58 0 -12 -57 c-7 -32 -15 -68 -18
-80 -5 -21 -2 -23 37 -23 l42 0 -7 -32 c-13 -65 -14 -67 -57 -70 l-42 -3 -16
-77 -17 -78 53 0 c29 0 55 -3 57 -7 2 -5 0 -27 -5 -50 l-9 -43 -105 0 c-57 0
-104 2 -104 5 0 8 120 577 126 598 5 15 19 17 104 17 54 0 101 -3 103 -7z
m487 -3 c37 -20 48 -131 16 -152 -6 -4 -26 -8 -43 -8 -31 0 -33 2 -33 35 0 42
-25 58 -46 30 -23 -32 -16 -80 27 -177 32 -72 42 -106 42 -148 0 -66 -30 -141
-67 -165 -53 -35 -140 -36 -174 -2 -17 17 -27 94 -18 131 6 23 11 26 51 26
l45 0 0 -44 c0 -25 4 -47 9 -50 26 -16 61 30 61 81 0 14 -15 60 -34 102 -50
110 -61 161 -47 217 15 58 37 92 76 115 33 21 105 25 135 9z m892 0 c20 -6 47
-23 59 -38 18 -23 20 -35 15 -85 -6 -62 -36 -130 -63 -145 -15 -9 -15 -12 2
-48 16 -34 17 -47 7 -102 -23 -137 -86 -191 -220 -192 -70 0 -72 1 -67 23 9
40 125 588 125 592 0 9 105 5 142 -5z m489 -87 l1 -98 46 98 45 97 44 0 c24 0
43 -4 43 -9 0 -4 -36 -84 -81 -177 -68 -141 -85 -188 -105 -284 -34 -161 -28
-150 -80 -150 -24 0 -44 4 -44 9 0 5 12 63 26 128 24 112 25 127 19 301 l-7
182 46 0 46 0 1 -97z m702 90 c2 -5 0 -27 -5 -50 -9 -42 -10 -43 -52 -43 l-43
0 -47 -227 c-26 -126 -51 -241 -55 -258 -7 -27 -11 -30 -54 -33 -26 -2 -47 -1
-47 2 0 8 100 480 106 499 5 14 -1 17 -40 17 l-44 0 9 38 c6 20 12 43 14 50 3
9 38 12 129 12 69 0 127 -3 129 -7z m497 -12 c0 -10 -3 -33 -6 -50 -6 -30 -7
-31 -65 -31 -53 0 -59 -2 -64 -22 -32 -144 -33 -138 16 -138 34 0 40 -3 35
-17 -2 -10 -7 -33 -11 -50 -6 -31 -9 -33 -49 -33 l-42 0 -14 -67 c-7 -38 -15
-74 -18 -80 -3 -10 11 -13 52 -13 61 0 63 -2 50 -69 l-6 -31 -104 0 c-73 0
-104 3 -104 12 0 13 118 575 125 596 3 8 33 12 105 12 91 0 100 -2 100 -19z
m490 9 c37 -20 48 -131 16 -152 -6 -4 -26 -8 -43 -8 -31 0 -33 2 -33 35 0 42
-25 58 -46 30 -23 -32 -16 -80 27 -177 32 -72 42 -106 42 -148 0 -66 -30 -141
-67 -165 -53 -35 -140 -36 -174 -2 -17 17 -27 94 -18 131 6 23 11 26 51 26
l45 0 0 -44 c0 -25 4 -47 9 -50 26 -16 61 30 61 81 0 14 -15 60 -34 102 -50
110 -61 161 -47 217 15 58 37 92 76 115 33 21 105 25 135 9z m-2724 -1065
c-37 -36 -72 -65 -76 -65 -4 0 -39 29 -76 65 l-69 64 145 0 145 0 -69 -64z"/>
<path d="M5548 7389 c-99 -11 -187 -44 -265 -98 -73 -52 -95 -74 -160 -161
-56 -76 -86 -134 -116 -221 -26 -77 -37 -129 -132 -579 -30 -146 -60 -283 -65
-305 -5 -22 -21 -96 -35 -165 -14 -69 -30 -143 -35 -165 -5 -22 -31 -139 -57
-260 -39 -184 -47 -238 -48 -330 0 -132 25 -221 86 -302 89 -118 280 -159 499
-108 22 6 29 1 48 -33 37 -66 102 -118 177 -141 76 -24 153 -28 160 -8 3 6 18
77 35 157 29 145 29 170 -6 170 -7 0 -32 18 -55 40 l-41 39 19 33 c89 148 117
223 157 418 14 69 35 168 46 220 12 52 32 147 45 210 14 63 41 192 61 285 20
94 44 208 54 255 24 117 48 228 71 335 33 154 39 197 40 285 1 300 -182 462
-483 429z m66 -412 c28 -38 27 -129 -2 -257 -11 -52 -37 -171 -57 -265 -20
-93 -40 -188 -45 -210 -5 -22 -21 -94 -34 -160 -33 -156 -152 -720 -172 -810
-18 -81 -64 -172 -101 -199 -14 -10 -45 -21 -69 -24 -39 -4 -47 -1 -72 26 -16
17 -32 48 -35 68 -5 31 17 168 53 319 5 22 25 117 45 210 36 171 76 359 140
658 130 613 121 581 183 643 33 33 39 35 90 32 47 -3 58 -7 76 -31z"/>
<path d="M6411 7348 c-5 -13 -11 -36 -14 -53 -11 -54 -87 -419 -102 -485 -8
-36 -30 -141 -50 -235 -20 -93 -42 -199 -50 -235 -19 -84 -109 -510 -141 -665
-13 -66 -29 -138 -34 -160 -6 -22 -28 -128 -50 -235 -22 -107 -47 -224 -55
-260 -40 -182 -65 -300 -65 -310 0 -7 88 -10 263 -10 313 0 399 13 537 81 69
34 102 60 176 133 82 82 96 103 152 216 179 363 190 758 27 939 -19 21 -35 41
-35 44 0 2 31 30 69 62 119 96 207 228 250 370 28 93 61 295 61 370 -1 134
-46 251 -124 323 -106 98 -271 131 -644 132 -159 0 -163 0 -171 -22z m420
-378 c73 -20 119 -99 119 -205 0 -161 -65 -342 -149 -418 -50 -45 -99 -66
-173 -74 -64 -7 -64 -7 -49 60 20 88 42 189 86 397 25 118 48 223 51 233 6 20
57 23 115 7z m-201 -1078 c51 -26 84 -97 88 -192 4 -83 -30 -262 -68 -363 -32
-86 -98 -177 -153 -211 -46 -28 -162 -52 -173 -34 -5 8 4 58 56 298 16 74 45
212 65 305 20 94 39 180 42 193 4 19 12 22 57 22 29 0 66 -8 86 -18z"/>
<path d="M2922 3268 c-14 -17 -94 -398 -88 -415 6 -15 32 -17 41 -3 10 17 85
368 85 400 0 32 -19 40 -38 18z"/>
<path d="M4040 3265 c-12 -14 -90 -362 -90 -402 0 -14 6 -23 15 -23 8 0 21 10
28 23 18 29 91 381 84 402 -8 19 -21 19 -37 0z"/>
<path d="M6539 3195 c-15 -70 -15 -75 1 -75 32 0 54 38 55 93 0 45 -3 52 -20
55 -18 2 -23 -7 -36 -73z"/>
<path d="M6485 2940 c-10 -50 -16 -93 -13 -95 2 -3 15 3 27 12 58 40 70 173
15 173 -7 0 -19 -38 -29 -90z"/>
</g>
</svg>
